<svg xmlns="http://www.w3.org/2000/svg" width="43" height="32" fill="none" viewBox="0 0 43 32"><g clip-path="url(#clip0_569_2)"><path fill="#4285F4" d="M9.64676 31.8425V15.4429L4.56075 10.79L0 8.20792V28.9484C0 30.5497 1.29741 31.8425 2.89409 31.8425H9.64676Z"/><path fill="#34A853" d="M32.7988 31.8425H39.5515C41.153 31.8425 42.4456 30.5449 42.4456 28.9484V8.20808L37.2798 11.1655L32.7988 15.4429V31.8425Z"/><path fill="#EA4335" d="M9.64665 15.4429L8.95459 9.03511L9.64665 2.90222L21.2227 11.5843L32.7987 2.90222L33.5729 8.704L32.7987 15.4429L21.2227 24.125L9.64665 15.4429Z"/><path fill="#FBBC04" d="M32.7988 2.90221V15.4429L42.4456 8.20791V4.34918C42.4456 0.770316 38.3602 -1.26989 35.5001 0.87643L32.7988 2.90221Z"/><path fill="#C5221F" d="M0 8.20794L4.43673 11.5356L9.64676 15.4429V2.90224L6.94549 0.87646C4.08041 -1.27003 0 0.770346 0 4.34904V8.20778V8.20794Z"/></g><defs><clipPath id="clip0_569_2"><rect width="42.446" height="32" fill="#fff"/></clipPath></defs></svg>