<svg xmlns="http://www.w3.org/2000/svg" width="32" height="32" fill="none" viewBox="0 0 32 32"><g clip-path="url(#clip0_559_10)"><path fill="#0A66C2" d="M27.2653 27.2659H22.5239V19.8405C22.5239 18.0699 22.4923 15.7905 20.0579 15.7905C17.5884 15.7905 17.2105 17.7198 17.2105 19.7116V27.2654H12.4693V11.9959H17.0209V14.0826H17.0846C17.5401 13.3038 18.1984 12.663 18.9892 12.2286C19.7801 11.7943 20.674 11.5825 21.5756 11.616C26.3813 11.616 27.2673 14.777 27.2673 18.8893L27.2653 27.2659ZM7.11926 9.90875C5.59963 9.909 4.36751 8.67725 4.36726 7.15763C4.36701 5.638 5.59863 4.40588 7.11826 4.40563C8.63788 4.40525 9.87001 5.637 9.87026 7.15663C9.87039 7.88638 9.58063 8.5863 9.06472 9.10242C8.54881 9.61854 7.84901 9.90859 7.11926 9.90875ZM9.49001 27.266H4.74363V11.9959H9.48988V27.2659L9.49001 27.266ZM29.629 0.00225269H2.36113C1.07238 -0.0122473 0.0155059 1.02013 -0.000244141 2.30888V29.6905C0.0150059 30.9799 1.07176 32.0133 2.36101 31.9998H29.629C30.921 32.0158 31.9819 30.9824 31.9998 29.6905V2.30675C31.9814 1.0155 30.9204 -0.0167473 29.629 0.000127693"/></g><defs><clipPath id="clip0_559_10"><rect width="32" height="32" fill="#fff"/></clipPath></defs></svg>